<svg width="158" height="51" viewBox="0 0 158 51" fill="none" xmlns="http://www.w3.org/2000/svg">
<mask id="mask0_990_3968" style="mask-type:luminance" maskUnits="userSpaceOnUse" x="0" y="0" width="158" height="51">
<path d="M158 0.906494H0V50.5853H158V0.906494Z" fill="white"/>
</mask>
<g mask="url(#mask0_990_3968)">
<path d="M73.1024 26.0543C73.3767 24.8894 73.1367 23.3476 70.8394 21.8059C70.9422 21.2919 70.9765 20.778 70.9422 20.2984C70.8394 18.7566 69.7078 17.8316 69.365 17.5917C68.6792 16.7352 68.1306 16.3583 67.4448 16.1527C67.5134 15.3647 68.1306 14.6453 68.1306 14.611C68.1306 14.611 69.8107 12.9322 66.9991 11.6303C65.9361 11.0136 64.7018 10.6709 63.4331 10.6709C62.8502 10.6709 62.4045 10.7395 62.0959 10.808C62.9874 10.4997 63.7417 9.88295 64.1875 9.06068L64.7361 8.10136L63.6388 8.23841C63.6388 8.23841 63.536 8.23841 63.3645 8.23841C62.8502 8.23841 61.8559 8.13562 61.1015 7.34761C60.8958 7.14205 60.6901 6.90222 60.45 6.62813C59.49 5.53177 58.2899 4.16131 56.9526 4.16131C56.3355 4.16131 55.7868 4.43541 55.3068 4.98359C54.5182 5.90864 53.9696 6.18273 53.6953 6.28551C53.2495 5.9429 52.7352 5.63455 52.118 5.36046L50.9865 0.906494L49.4435 4.53819C49.2721 4.50393 49.1006 4.46967 48.9635 4.43541C48.9292 3.51035 48.552 2.92792 48.2434 2.5853C47.7291 2.00286 46.9405 1.69451 46.0833 1.69451C44.9518 1.69451 43.6831 2.27695 43.2374 3.40757C42.5859 3.30479 41.2486 2.92791 39.7057 1.79729L39.1914 1.42041L38.8828 1.96859C38.8485 2.00286 38.2656 3.06496 37.957 4.43541C37.6141 4.36689 37.2712 4.33262 36.9626 4.33262C32.8823 4.33262 29.7964 8.40971 29.6249 8.64954C29.0763 9.26624 28.5963 9.88295 28.1848 10.4311C27.7048 11.0821 27.2248 11.7673 26.779 12.4868C26.7447 12.5211 26.7105 12.5896 26.6762 12.6238C26.539 12.7951 26.3676 13.035 26.3333 13.3091C26.299 13.3433 26.2647 13.3776 26.2647 13.4118C26.2304 13.4804 26.1618 13.5146 26.1276 13.5832C25.5446 14.1313 24.8589 14.6795 24.0703 15.262C23.2816 15.8101 22.493 16.2898 21.6701 16.7009C20.9157 17.0778 20.1614 17.3862 19.3385 17.6945L19.0642 17.7973C18.8927 17.8658 18.687 17.9343 18.5156 18.0371C18.4813 18.0714 18.4127 18.0714 18.3784 18.1056L18.207 17.9686C16.6297 16.6667 14.7096 16.0157 12.4808 16.0157C11.075 16.0157 9.60064 16.4268 8.50342 16.7352C7.98909 16.8722 7.47477 17.0093 7.23475 17.0435H7.20047C6.92616 17.0435 6.34326 16.9065 6.06895 16.838L4.80029 16.4954L5.45177 17.6603C5.48606 17.6945 6.17182 18.8937 7.33762 19.6131C8.22911 20.1613 9.22347 20.5725 11.2122 20.8808C11.9665 20.9836 12.1723 21.2234 12.4808 21.566C11.7265 22.4226 10.115 24.3412 9.90923 25.9857C9.87495 26.157 9.87494 26.2941 9.80637 26.4996C9.77208 26.5339 9.77208 26.6024 9.73779 26.6367C9.66922 26.7395 9.60064 26.8765 9.56635 26.9793C9.4292 27.1849 9.29204 27.4247 9.1206 27.6303C8.81201 28.0414 8.43484 28.4183 8.02338 28.6924C7.81765 28.8637 7.57764 29.0007 7.37191 29.1035L7.16618 29.2405C6.96045 29.3433 6.78901 29.4461 6.58328 29.5832C5.9318 29.96 5.41748 30.3026 4.97173 30.6453C4.38883 31.0907 3.9088 31.5703 3.53163 32.05C3.08588 32.5982 2.70871 33.2149 2.46869 33.8658C2.22868 34.5168 2.09152 35.202 2.05724 35.9215C2.05724 36.2641 2.05724 36.6067 2.09152 36.9493L2.12581 37.1549L2.1601 37.2919C2.1601 37.3605 2.19439 37.429 2.19439 37.4975C0.788573 39.6902 0.308538 41.5403 0.788572 43.0821C0.377114 44.1784 -0.137209 46.0971 0.102808 47.8444L0.137097 48.1528L0.411403 48.2898C0.514267 48.3583 3.39448 49.5917 8.74343 49.5917C9.22347 49.5917 9.7035 49.5917 10.2178 49.5575H10.3893C11.7265 49.5575 12.5151 49.3862 12.5494 49.3862L12.8923 49.3176L12.9266 49.1806C15.6354 49.1463 16.4926 48.7009 16.6297 48.5982L16.8697 48.4611V48.2898C17.3841 48.187 18.1727 48.0157 18.687 47.7074L18.8585 47.6046L18.927 47.399C18.927 47.3647 19.167 46.5425 19.0985 45.4804H19.1328L19.0299 44.9322C18.5841 42.4311 16.4926 40.7866 12.9952 40.1356C12.8237 40.1014 12.2065 39.9301 11.2808 39.8958C11.2465 39.6902 11.2808 39.4847 11.3493 39.3134C11.8294 39.4504 12.378 39.5189 12.8923 39.5189C15.2239 39.5189 17.4869 38.354 18.927 37.429C19.2013 38.5596 19.6128 39.9986 20.2986 41.5061C20.71 42.3969 21.1901 43.1163 21.7044 43.5617C21.5672 44.4868 21.4644 46.0628 21.8758 47.7074L21.9101 47.8787L22.0473 47.9815C22.1844 48.0842 25.2361 50.6196 31.2708 50.6196C33.4652 50.6196 35.7625 50.277 38.1627 49.626L38.5399 49.5232L38.5742 49.1806C39.1228 49.0436 39.7743 48.8722 40.22 48.5982L40.3914 48.4954L40.46 48.2898C40.46 48.2555 40.7686 47.262 40.6315 45.96C42.0716 45.96 42.7916 45.6859 42.8945 45.6517L43.1688 45.5489L43.2031 45.4119C43.2374 45.4119 43.2374 45.4119 43.2716 45.4119C44.2317 45.4119 45.6375 45.2063 46.9748 44.1442L47.1462 44.0071L47.1805 43.8016C47.1805 43.7331 47.4548 42.157 47.1119 40.8208C48.3463 40.581 49.3064 40.2384 49.9578 39.8958C50.4379 40.1014 51.2265 40.3755 52.1523 40.3755C53.3181 40.3755 54.381 39.9986 55.3411 39.2448C55.5468 39.3134 55.7183 39.3819 55.9583 39.4504C56.0611 40.1699 56.3355 40.7523 56.7126 41.1977C57.3984 41.9515 58.6328 42.7737 60.1072 42.7737C60.4158 42.7737 60.7243 42.7395 61.0329 42.671C60.7929 44.4183 61.0672 46.0286 61.0672 46.0971L61.1358 46.4397L61.4444 46.5425C62.6788 46.9536 63.7074 47.0564 64.3589 47.0907L64.4275 47.4675L64.7703 47.5703C65.6961 47.8101 66.6219 47.9472 67.5134 47.9472C68.3363 47.9472 68.9878 47.8444 69.3993 47.7416C70.2565 48.1185 71.148 48.3241 72.0737 48.3241C73.9939 48.3241 75.2625 47.4333 75.3311 47.399L75.5368 47.2277L75.5711 46.9879C75.5711 46.9536 75.674 46.1999 75.7769 45.172C76.5998 44.2812 78.2456 42.1228 78.5885 38.9365C79 34.7566 77.1484 30.4397 73.1024 26.0543Z" fill="white"/>
</g>
<mask id="mask1_990_3968" style="mask-type:luminance" maskUnits="userSpaceOnUse" x="0" y="0" width="158" height="51">
<path d="M158 0.906494H0V50.5853H158V0.906494Z" fill="white"/>
</mask>
<g mask="url(#mask1_990_3968)">
<path d="M92.5096 12.7266C93.8811 13.8915 93.8125 15.3647 93.3325 16.8379C92.6468 18.8594 91.1038 19.8872 89.0465 20.2641C88.6007 20.3326 88.1207 20.3326 87.675 20.3326C84.2804 20.3326 80.8859 20.3326 77.4914 20.3326H76.9771C77.1485 19.4075 77.2856 18.5167 77.4571 17.626C78.1086 13.9257 78.76 10.2598 79.4115 6.55957C79.4801 6.21695 79.583 6.14844 79.8915 6.14844C83.3204 6.14844 86.7149 6.14844 90.1437 6.14844C91.0009 6.14844 91.8581 6.25122 92.681 6.59383C93.984 7.17627 94.5326 8.37542 94.2926 9.91717C94.0869 11.0478 93.5725 11.9386 92.6468 12.5895C92.5782 12.6581 92.5439 12.7266 92.5096 12.7266ZM83.3547 14.5082C83.5261 13.5489 83.6632 12.6923 83.8347 11.8015H84.2804C85.892 11.8015 87.5035 11.8015 89.1151 11.8015C89.3894 11.8015 89.6637 11.733 89.938 11.6302C90.3837 11.4589 90.5895 10.9107 90.4866 10.3968C90.3837 9.9857 90.1094 9.78013 89.5608 9.74587C89.4922 9.74587 89.4237 9.74587 89.3208 9.74587H82.8403H82.4632C82.0517 12.1099 81.6402 14.4054 81.2288 16.7352C83.7661 16.7352 86.2691 16.7694 88.7379 16.7352C89.5265 16.7352 89.938 16.1185 89.9037 15.2962C89.8694 14.885 89.6637 14.6452 89.2522 14.5424C89.0465 14.5082 88.8408 14.5082 88.635 14.5082C87.0235 14.5082 85.4462 14.5082 83.8347 14.5082H83.3547Z" fill="white"/>
</g>
<mask id="mask2_990_3968" style="mask-type:luminance" maskUnits="userSpaceOnUse" x="0" y="0" width="158" height="51">
<path d="M158 0.906494H0V50.5853H158V0.906494Z" fill="white"/>
</mask>
<g mask="url(#mask2_990_3968)">
<path d="M101.047 6.25113C100.91 7.0734 100.773 7.89568 100.636 8.68368C100.293 10.6366 99.9501 12.5552 99.6415 14.5081C99.6072 14.7137 99.6072 14.9535 99.6072 15.1591C99.6072 16.1869 100.019 16.7351 101.047 16.8721C102.727 17.1462 104.373 17.112 106.053 16.7693C107.288 16.4953 108.008 15.7415 108.248 14.5081C108.591 12.8293 108.865 11.1162 109.174 9.40317C109.345 8.34107 109.551 7.27897 109.722 6.21687H113.22C113.185 6.38818 113.185 6.55948 113.151 6.73079C112.671 9.43743 112.225 12.1441 111.677 14.8164C111.299 16.7008 110.339 18.3111 108.625 19.3047C107.596 19.9214 106.431 20.2297 105.23 20.401C103.207 20.6409 101.184 20.6751 99.23 20.1269C97.7899 19.7158 96.6241 18.9621 96.1098 17.4546C95.8012 16.5638 95.8012 15.6387 95.9384 14.7137C96.3841 11.9728 96.8641 9.23187 97.3442 6.49097C97.3785 6.2854 97.4128 6.18262 97.6528 6.18262C98.75 6.18262 99.8472 6.18262 100.944 6.18262C100.91 6.18262 100.944 6.21687 101.047 6.25113Z" fill="white"/>
</g>
<mask id="mask3_990_3968" style="mask-type:luminance" maskUnits="userSpaceOnUse" x="0" y="0" width="158" height="51">
<path d="M158 0.906494H0V50.5853H158V0.906494Z" fill="white"/>
</mask>
<g mask="url(#mask3_990_3968)">
<path d="M148.057 12.1441C148.845 11.2875 149.6 10.431 150.388 9.60874C151.348 8.54664 152.308 7.5188 153.269 6.4567C153.44 6.2854 153.611 6.18262 153.851 6.18262C155.223 6.18262 156.56 6.18262 158.035 6.18262C157.897 6.31966 157.829 6.42245 157.726 6.52523C154.949 9.40317 152.137 12.3154 149.36 15.1933C149.223 15.3304 149.085 15.5702 149.051 15.7758C148.777 17.1805 148.537 18.5852 148.297 19.9556C148.262 20.0927 148.228 20.1955 148.228 20.3325H144.662C144.834 19.2704 145.005 18.2426 145.211 17.2147C145.279 16.7351 145.417 16.2554 145.451 15.7415C145.485 15.5359 145.417 15.2961 145.314 15.1591C143.599 12.3154 141.885 9.50596 140.136 6.66227C140.068 6.52523 139.965 6.38818 139.862 6.18262H140.308C141.611 6.18262 142.913 6.21688 144.182 6.18262C144.559 6.18262 144.765 6.31966 144.936 6.62801C145.862 8.34107 146.857 10.0541 147.782 11.8015C147.885 11.9042 147.954 12.007 148.057 12.1441Z" fill="white"/>
</g>
<mask id="mask4_990_3968" style="mask-type:luminance" maskUnits="userSpaceOnUse" x="0" y="0" width="158" height="51">
<path d="M158 0.906494H0V50.5853H158V0.906494Z" fill="white"/>
</mask>
<g mask="url(#mask4_990_3968)">
<path d="M113.083 20.3328C113.425 18.3799 113.768 16.4955 114.077 14.5769C114.557 11.9045 115.037 9.19787 115.517 6.52549C115.551 6.42271 115.654 6.21713 115.723 6.21713C116.854 6.18287 117.986 6.21713 119.152 6.21713C118.534 9.74604 117.917 13.2407 117.3 16.7696H126.112C125.906 17.9687 125.701 19.1679 125.461 20.3328H113.083Z" fill="white"/>
</g>
<mask id="mask5_990_3968" style="mask-type:luminance" maskUnits="userSpaceOnUse" x="0" y="0" width="158" height="51">
<path d="M158 0.906494H0V50.5853H158V0.906494Z" fill="white"/>
</mask>
<g mask="url(#mask5_990_3968)">
<path d="M131.529 16.7693H140.342C140.136 17.9341 139.93 19.0305 139.724 20.1611C139.724 20.2296 139.587 20.2982 139.519 20.3667C139.45 20.401 139.381 20.3667 139.279 20.3667H127.723H127.312C128.135 15.6386 128.958 10.9448 129.815 6.2168H133.415C132.764 9.7457 132.181 13.2061 131.529 16.7693Z" fill="white"/>
</g>
<mask id="mask6_990_3968" style="mask-type:luminance" maskUnits="userSpaceOnUse" x="0" y="0" width="158" height="51">
<path d="M158 0.906494H0V50.5853H158V0.906494Z" fill="white"/>
</mask>
<g mask="url(#mask6_990_3968)">
<path d="M139.656 22.5597C139.45 23.7246 139.245 24.8552 139.073 26.0543H138.627C136.227 26.0543 133.793 26.0543 131.393 26.0543C129.747 26.0543 128.478 26.7395 127.621 28.1443C126.867 29.3777 126.969 30.9879 127.827 31.9815C128.307 32.5297 128.924 32.838 129.61 32.8723C131.461 32.9066 133.313 32.8723 135.199 32.8723C135.336 32.1528 135.439 31.4333 135.576 30.6796H130.09C130.261 29.7888 130.398 28.898 130.535 28.0415H139.588C139.108 30.8509 138.593 33.626 138.113 36.4012C138.01 36.4012 137.942 36.4355 137.873 36.4355C134.924 36.4355 132.01 36.4355 129.061 36.4355C126.181 36.4012 123.849 34.2428 123.575 31.3648C123.061 26.3284 126.969 22.6625 131.324 22.5597C134.033 22.4912 136.707 22.5254 139.416 22.5254C139.45 22.5254 139.519 22.5254 139.656 22.5597Z" fill="white"/>
</g>
<mask id="mask7_990_3968" style="mask-type:luminance" maskUnits="userSpaceOnUse" x="0" y="0" width="158" height="51">
<path d="M158 0.906494H0V50.5853H158V0.906494Z" fill="white"/>
</mask>
<g mask="url(#mask7_990_3968)">
<path d="M111.814 36.5039C110.82 36.4354 109.757 36.5039 108.728 36.3326C106.019 35.853 104.339 33.7973 104.134 30.9879C103.894 27.0478 106.568 23.5189 110.477 22.7652C111.163 22.6281 111.883 22.5596 112.603 22.5596C113.94 22.5254 115.277 22.5254 116.614 22.5939C118.637 22.6967 120.283 23.5532 121.278 25.369C121.963 26.6024 122.066 27.9386 121.861 29.3091C121.381 32.9065 118.5 35.853 114.9 36.3669C113.94 36.4697 112.911 36.4354 111.814 36.5039ZM112.431 32.9065C113.117 32.9065 113.769 32.9065 114.454 32.9065C116.512 32.838 118.157 31.262 118.363 29.2748C118.5 27.596 117.437 26.2256 115.757 26.0885C114.351 25.9857 112.946 25.9857 111.574 26.0885C109.825 26.2256 108.557 27.1849 107.94 28.8294C107.254 30.7138 108.214 32.975 110.82 32.9065C111.334 32.9065 111.883 32.9065 112.431 32.9065Z" fill="white"/>
</g>
<mask id="mask8_990_3968" style="mask-type:luminance" maskUnits="userSpaceOnUse" x="0" y="0" width="158" height="51">
<path d="M158 0.906494H0V50.5853H158V0.906494Z" fill="white"/>
</mask>
<g mask="url(#mask8_990_3968)">
<path d="M85.8921 36.4355C86.2693 34.2427 86.6464 32.0843 87.0236 29.9258C87.4351 27.5618 87.8808 25.1978 88.258 22.8337C88.2923 22.5939 88.3951 22.5254 88.6351 22.5254C91.3439 22.5254 94.0184 22.5254 96.7272 22.5254C98.4073 22.5254 99.9503 23.0393 101.15 24.2727C102.248 25.4033 102.59 26.808 102.59 28.3498C102.59 32.6325 98.7845 36.4697 94.2584 36.4355C91.5154 36.4355 88.7723 36.4355 86.0635 36.4355C86.0635 36.4697 85.995 36.4355 85.8921 36.4355ZM90.041 32.9066C90.1095 32.9066 90.1781 32.9408 90.2467 32.9408C91.824 32.9408 93.4012 32.9408 94.9785 32.9408C96.2128 32.9065 97.2415 32.4269 98.0644 31.5018C99.2302 30.2342 99.3331 28.247 98.3044 27.0479C97.6872 26.2941 96.8643 26.0886 95.9385 26.0886C94.4984 26.0886 93.024 26.0886 91.5839 26.0886C91.4811 26.0886 91.3782 26.0886 91.2411 26.1228C90.8639 28.3498 90.4524 30.6111 90.041 32.9066Z" fill="white"/>
</g>
<mask id="mask9_990_3968" style="mask-type:luminance" maskUnits="userSpaceOnUse" x="0" y="0" width="158" height="51">
<path d="M158 0.906494H0V50.5853H158V0.906494Z" fill="white"/>
</mask>
<g mask="url(#mask9_990_3968)">
<path d="M13.8522 21.1549C13.3379 20.641 13.0636 19.7502 11.2806 19.4761C9.42901 19.202 7.88604 18.3797 7.88604 18.3797C7.88604 18.3797 13.2693 15.9129 17.1781 19.0649C17.1781 19.0992 15.1208 20.127 13.8522 21.1549ZM72.3821 26.1913C72.7593 25.0949 72.5879 23.5874 70.0848 22.0457C70.2563 21.3947 70.2906 20.778 70.2563 20.3326C70.1534 18.8251 68.8504 17.9686 68.8504 17.9686C68.0618 16.9407 67.5132 16.7009 66.7589 16.5296C66.6217 15.3305 67.5818 14.2341 67.5818 14.2341C67.9932 13.7202 67.9932 12.8979 66.6217 12.0756C64.1873 10.6367 61.7871 11.3904 61.7871 11.3904C61.7871 11.3904 61.4785 10.945 60.8613 10.4311C61.6499 10.3626 62.8843 10.02 63.6044 8.71805C63.6044 8.71805 61.8557 8.95788 60.6213 7.69021C59.3869 6.42254 57.3296 3.33904 55.6495 5.32619C54.6209 6.55959 53.8665 6.83368 53.4551 6.83368C52.9064 6.35402 52.2207 6.01141 51.5692 5.73732L51.192 4.26409L50.7806 2.61954L50.0948 4.19556L49.6833 5.15488C49.1004 5.01784 48.6204 4.94931 48.3118 4.91505C48.5861 1.4204 43.9229 1.62597 43.5458 4.02425C43.5458 4.02425 41.6599 3.99 39.294 2.24268C39.294 2.24268 38.5397 3.5446 38.334 5.12062C33.8079 3.85295 30.0019 9.0264 30.0019 9.0264C29.4876 9.60884 29.0419 10.1913 28.5618 10.808C28.0818 11.459 27.636 12.1099 27.1903 12.7951C27.0531 13.0007 26.9503 13.2405 26.8131 13.4461C26.7103 13.6517 26.5731 13.823 26.4702 13.9943C25.8188 14.611 25.0644 15.2277 24.2758 15.7759C23.4872 16.324 22.6642 16.8037 21.807 17.2491C20.9498 17.6945 20.0583 18.0371 19.1326 18.3797C18.824 18.5168 18.4468 18.6538 18.1382 18.7909L17.6925 18.4482C16.2181 17.2491 14.4008 16.6324 12.3092 16.6324C10.2519 16.6324 7.88604 17.5917 7.09741 17.6602C6.65166 17.6945 5.76017 17.4204 5.76017 17.4204C5.76017 17.4204 6.37736 18.5168 7.44029 19.1677C8.26321 19.6816 9.22328 20.0585 11.1091 20.3669C12.1378 20.5039 12.4464 20.8808 12.7893 21.3262C12.8578 21.429 12.9607 21.5317 13.0293 21.6345C12.6864 22.0114 10.4919 24.3069 10.2519 26.0885C10.2176 26.2941 10.1833 26.4996 10.1491 26.6709V26.7052C10.1148 26.7737 10.0805 26.8422 10.0462 26.8765C9.97762 27.0136 9.90904 27.1163 9.84046 27.2534C9.70331 27.4932 9.53187 27.733 9.36043 27.9386C9.01755 28.384 8.60609 28.7951 8.16035 29.1035C7.92033 29.2748 7.7146 29.4118 7.44029 29.5489C7.16599 29.6859 6.92597 29.8572 6.65166 29.9943C6.13734 30.3026 5.58873 30.6452 5.1087 31.0221C4.62866 31.399 4.14863 31.8444 3.73717 32.324C3.32571 32.838 3.01711 33.3861 2.7771 34.0028C2.53708 34.6195 2.43422 35.2705 2.39993 35.8872C2.39993 36.1956 2.39993 36.5382 2.43422 36.8465L2.4685 37.0521L2.50279 37.1891C2.50279 37.2577 2.53708 37.3604 2.53708 37.429C2.53708 37.4632 2.57137 37.5317 2.57137 37.566C0.822671 40.2384 0.754094 41.9857 1.13126 43.0478C0.754094 44.0414 0.171195 45.9943 0.411213 47.7073C0.411213 47.7073 3.73717 49.1806 9.97762 48.9407C11.4177 48.975 12.2406 48.7694 12.2406 48.7694C12.2406 48.7009 12.2749 48.6324 12.2749 48.5296C15.3609 48.5296 16.1495 48.0157 16.1495 48.0157C16.1495 47.9129 16.1495 47.7759 16.1495 47.6731C16.2866 47.6731 17.5553 47.5018 18.2068 47.1249C18.2068 47.1249 18.5154 46.0971 18.2754 44.9322H18.3097C17.8296 42.0885 14.9494 40.9921 12.6864 40.5467C12.6864 40.5467 12.0006 40.3412 11.0063 40.3412C10.9034 40.3412 10.8005 40.3412 10.6977 40.3069C10.3548 39.5874 10.6634 38.9022 10.9034 38.5596C14.0236 39.6902 17.6925 37.429 19.1326 36.4011C19.4069 37.6688 19.8526 39.3819 20.6412 41.1634C21.1213 42.2598 21.6356 42.8765 22.1499 43.2191C22.0128 44.0414 21.8413 45.7202 22.2528 47.4675C22.2528 47.4675 27.4303 51.8872 37.8882 49.0093C37.8882 49.0093 37.8882 48.8722 37.8882 48.6324C38.4711 48.5296 39.294 48.3583 39.7741 48.0499C39.7741 48.0499 40.1169 46.8165 39.8769 45.3776H39.9112V45.3433C41.6942 45.4461 42.5514 45.1035 42.5514 45.1035C42.5857 45.0007 42.5857 44.8979 42.62 44.7609C43.5115 44.8294 45.0544 44.7951 46.5288 43.6303C46.5288 43.6303 46.8717 41.5403 46.2545 40.3069C47.9347 40.1013 49.1347 39.5874 49.8548 39.2106C50.6777 39.6217 52.975 40.444 55.1352 38.4911C55.4438 38.6624 55.8552 38.7994 56.3353 38.9022C56.4038 39.5532 56.5753 40.2384 56.9867 40.718C57.9811 41.8144 59.8669 42.6367 61.6156 41.6431C61.1013 43.6645 61.4785 45.8572 61.4785 45.8572C62.9872 46.3712 64.153 46.3711 64.7016 46.3369C64.7359 46.6452 64.7702 46.8165 64.7702 46.8165C67.0332 47.4332 68.6447 47.1249 69.2962 46.9193C72.4164 48.324 74.8852 46.7138 74.8852 46.7138C74.8852 46.7138 74.988 45.8915 75.0909 44.7266C76.5653 43.3562 81.9828 36.4697 72.3821 26.1913ZM69.2962 20.778C69.2962 20.778 68.8847 20.8808 68.8847 21.1891C68.8847 21.1891 69.5362 23.3819 67.8561 23.8958C67.8561 23.8958 67.5132 23.0735 66.6217 22.8679C66.6217 22.8679 68.5076 21.9429 68.679 21.0178C68.679 21.0178 68.8847 20.6752 69.2962 20.778ZM55.8552 6.83368C56.6781 5.70306 56.781 4.98357 58.7697 7.24481C60.7584 9.54031 62.13 9.30048 62.13 9.30048C62.13 9.30048 60.827 10.2255 59.4212 9.50605L59.4555 9.54032C58.7697 9.1977 57.9811 8.92361 56.9867 8.82083C57.3982 8.03282 58.084 8.44395 58.084 8.44395C57.1239 7.58742 57.0553 8.10134 57.0553 8.10134C57.0896 7.96429 57.2267 7.24481 57.2267 7.27907C57.1239 7.41612 56.7467 8.06709 56.7467 8.06709C55.7866 9.30049 54.6209 8.85509 54.6209 8.85509C54.4494 8.64952 54.2437 8.44396 53.9694 8.23839C54.278 8.13561 55.2037 7.75873 55.8552 6.83368ZM45.5688 43.1506C45.5688 43.1506 44.6773 43.9729 42.7228 43.8358C42.7914 40.7866 40.4941 40.8551 40.4941 40.8551C42.5171 42.157 41.7971 44.384 41.7971 44.384C40.9741 44.4868 40.1855 44.4183 39.6712 44.3497C38.7797 42.0542 36.4824 40.9236 34.2879 40.3412C34.528 39.5532 35.1109 38.354 36.6538 38.354C39.7741 39.93 42.4485 40.4097 44.6087 40.4097C44.883 40.4097 45.123 40.4097 45.3973 40.3754C45.6031 40.8894 45.8088 41.7801 45.5688 43.1506ZM34.528 36.1956L34.3908 36.0928L34.2194 36.127C33.6708 36.2298 32.2649 36.4011 31.2706 36.0585C31.4077 35.339 31.442 34.6195 31.4077 34.0028C31.7506 33.9001 32.1621 33.7973 32.5735 33.5917C33.0879 33.8658 34.9394 34.6538 37.031 33.5232C37.031 33.5232 34.6994 33.8658 33.6022 33.0778C34.1851 32.7009 34.7337 32.187 35.0423 31.536C35.0423 31.536 33.2936 32.838 31.2363 33.1463C30.9963 32.3583 30.5162 31.7759 29.6933 31.536C29.6933 31.536 30.6191 32.838 30.3105 35.2362C29.8991 38.7309 27.7732 41.4718 30.3105 43.6645C30.3105 43.6645 29.659 42.808 29.8648 40.9236C31.0649 40.9579 35.7281 41.1977 37.8196 43.6303C38.1968 44.1099 38.9854 45.3433 38.7454 47.3647C38.7454 47.3647 38.574 47.5703 37.8196 47.7416C37.6139 46.1313 36.8253 43.8016 34.0479 44.384C34.0479 44.384 36.8938 44.7266 36.6538 48.3583C36.6538 48.3583 28.0818 50.6881 23.1443 46.6795C23.1443 46.6795 22.8014 45.172 23.1443 43.6645C23.8986 43.733 24.4472 43.3219 24.4472 43.3219C21.0527 43.4589 20.2298 36.2298 20.2298 36.2298C21.0184 36.4697 21.7042 36.4354 21.7042 36.4354C19.6812 36.0928 18.0011 33.6945 20.0583 29.2748C22.1156 24.8551 25.0987 21.8401 25.0987 21.8401C25.0987 21.8401 23.4872 22.7309 21.6699 25.0264C21.7042 24.5467 21.2584 23.93 21.2584 23.93C21.2584 23.93 21.2584 24.6153 20.847 26.1228C20.2641 26.9793 19.6812 27.9729 19.1326 29.1378C17.5553 32.4611 17.8639 34.2769 18.6868 35.2705C11.8978 40.8208 7.78317 35.7502 7.78317 35.7502C8.40036 36.8808 9.12041 37.6688 9.90904 38.1485C9.53187 38.7652 9.22328 39.6902 9.49758 40.581C8.50323 40.7866 7.406 41.232 6.37736 42.0885C6.37736 42.0885 8.22892 41.3347 10.5605 41.369C11.932 41.4375 14.9151 41.7801 16.4924 43.3904C16.561 43.4589 16.5952 43.5275 16.6638 43.5617C16.9724 43.9386 17.6239 44.9664 17.4524 46.611C17.4524 46.611 17.2467 46.8508 16.2524 46.9879C16.0809 44.2127 14.5379 43.0136 14.5379 43.0136C15.5666 45.2063 15.5323 47.4675 15.5323 47.4675C14.2294 47.7416 13.1664 47.7073 12.5149 47.6388C12.6178 44.8979 11.2463 43.5617 11.2463 43.5617C12.0349 45.8572 11.5206 47.9129 11.5206 47.9129C11.5206 47.9129 3.66859 48.324 1.47415 46.6452C1.47415 46.6452 1.30271 45.823 1.85132 44.0414C2.26278 44.521 2.67423 44.6924 2.67423 44.6924C0.959825 42.2598 2.70852 39.6217 3.25713 38.9022C3.53144 39.5189 3.87432 40.0671 4.25149 40.6153C3.87432 39.5532 3.60002 38.4911 3.53144 37.429C3.49715 37.2919 3.46286 37.1206 3.46286 36.9836V36.915V36.8123C3.46286 36.7437 3.46286 36.6752 3.42857 36.6067C3.42857 36.4697 3.42857 36.3326 3.42857 36.1956C3.42857 35.6131 3.53144 35.0649 3.70288 34.5168C3.87432 33.9686 4.14863 33.4889 4.49151 33.0435C4.83439 32.5981 5.24585 32.187 5.72588 31.8101C6.17163 31.4332 6.68595 31.1249 7.20027 30.8165C7.47458 30.6795 7.7146 30.5082 7.9889 30.3711C8.12606 30.3026 8.26321 30.2341 8.40036 30.1313C8.53751 30.0628 8.67467 29.96 8.81182 29.8572C9.32614 29.4804 9.80618 29.035 10.1833 28.521C10.3205 29.7202 10.6634 30.8851 11.1091 31.9472C10.9377 30.748 10.9034 29.5489 11.0406 28.4183C11.0406 28.247 11.0406 28.0757 11.0406 27.9386V27.8358V27.6645C11.0406 27.5617 11.0748 27.4247 11.0748 27.3219C11.1091 27.0821 11.1434 26.8422 11.212 26.6367C11.4177 25.7116 11.7949 24.8551 12.3435 24.0671C13.4064 22.4911 15.0523 21.3604 16.7667 20.5039C17.6239 20.0585 18.5497 19.6816 19.4754 19.339C20.4012 18.9622 21.3613 18.6195 22.2528 18.1742C23.1786 17.7288 24.0358 17.2148 24.893 16.6324C25.133 16.4611 25.373 16.2898 25.613 16.1185C24.3787 19.1335 25.0301 20.5039 25.0301 20.5039C25.0301 20.4697 25.0301 20.4696 25.0301 20.4354C25.0987 19.99 25.613 17.2148 28.6304 16.9065C28.6304 16.9065 27.8418 16.3583 26.1959 17.0778C26.2645 16.9407 26.2988 16.8037 26.3674 16.6666L26.4702 16.4268L26.5731 16.1527C26.6417 15.9814 26.7445 15.7759 26.8131 15.6046C27.156 14.8851 27.5332 14.1998 27.9446 13.5146C28.7675 12.1784 29.7276 10.8422 30.7563 9.67736C31.7849 8.51248 33.0193 7.45038 34.4251 6.83368C35.1109 6.52533 35.8652 6.35402 36.6195 6.35402C36.9967 6.35402 37.3739 6.38828 37.7168 6.4568C37.8882 6.49107 38.0597 6.55959 38.2311 6.62811C38.2997 6.66237 38.4025 6.69663 38.4711 6.73089C38.7111 7.96429 39.5683 9.12918 41.6599 9.74589C41.5228 9.88293 41.3513 10.02 41.1799 10.2255L39.8426 9.6431L37.6825 8.71805L38.7111 10.8422L39.5683 12.5896C38.9169 13.8572 38.2997 15.536 37.8539 17.763L35.3509 18.1742L32.985 18.551L35.0423 19.7502L37.4082 21.1549C37.3739 22.0457 37.4082 22.8679 37.4768 23.656C37.4768 23.656 37.4768 23.6902 37.4768 23.7587C37.5796 24.581 37.7168 25.3348 37.9225 26.0542C37.9911 26.2941 38.0254 26.5682 38.0939 26.808L36.4481 28.4868L34.6651 30.3026L37.1682 29.96L38.9511 29.7202C39.4998 31.2277 40.2198 32.8722 41.1456 34.414L40.9399 34.8251L40.2884 36.1613L39.4998 37.7716L41.2485 37.3947L42.7228 37.0864L43.1 37.0178C43.34 37.2919 43.6143 37.566 43.8886 37.8058C44.3344 38.2855 44.8144 38.6281 45.2945 38.9022C45.6031 39.1078 45.9459 39.3133 46.2888 39.4846C43.5801 39.793 39.5683 39.4161 34.528 36.1956ZM33.5679 40.1699C32.1278 39.8615 30.8248 39.793 30.1391 39.7587C30.2419 39.3476 30.3791 38.9022 30.5848 38.4225C30.722 38.0457 30.8591 37.6688 30.962 37.2919C31.8535 37.2234 33.8765 37.2919 33.5679 40.1699ZM62.4728 16.2555H62.4386C61.5471 14.1998 60.587 14.4397 60.587 14.4397C59.0783 11.5617 58.6326 12.2127 58.6326 12.2127C59.9012 13.2405 60.1755 15.0564 60.1755 15.0564C61.3756 14.1656 61.7528 15.9129 61.8899 16.3583C61.0327 16.5981 60.6899 17.1806 60.6899 17.1806C62.4386 16.0842 63.8444 16.9407 63.8444 16.9407C63.3986 17.0435 63.0557 17.2834 63.0557 17.2834C68.0275 16.0157 68.4733 19.3048 68.4733 19.3048C68.919 19.6474 69.1933 19.3733 69.1933 19.3733C69.1933 19.3733 68.3018 19.2705 65.8674 18.5853C62.6443 16.8037 61.0327 18.1742 61.0327 18.1742C60.7241 18.0028 60.4156 17.8315 60.1412 17.7288C59.3526 17.4889 59.1469 17.0093 59.1469 17.0093C60.3813 17.2148 60.587 16.3926 60.587 16.3926C58.4611 17.4204 58.5297 14.4739 56.1295 12.521C53.7294 10.5682 51.2606 12.5553 51.2606 12.5553C54.2094 11.2191 55.9581 13.4804 55.9581 13.4804C54.1408 13.4118 53.6265 14.9193 53.5236 15.4333C51.5349 14.8508 50.0948 15.9129 50.0948 15.9129C54.3808 14.9536 56.1295 18.3797 56.1295 18.3797C55.9581 18.5168 55.8895 18.6195 55.8895 18.6195C59.6269 16.838 60.6556 18.8936 60.6556 18.8936C61.1699 18.8936 61.9585 18.551 61.9585 18.551C61.6156 18.8936 61.6156 19.99 62.5414 20.5382C63.4672 21.0864 63.6044 20.641 63.6044 20.641C63.2615 20.4697 63.2272 19.99 63.2272 19.99C63.2272 19.6474 63.5701 19.5446 63.5701 19.5446C64.3244 19.202 64.5301 20.127 64.7702 20.8123C65.0102 21.4975 66.0731 21.7031 66.2445 22.4225C66.416 23.0392 65.5245 23.3819 65.2845 23.4504C64.8044 23.5874 64.1873 23.6902 63.4672 23.5874C61.7528 23.3476 60.6899 22.4225 60.6899 22.4225C60.6899 22.4225 58.4611 22.6966 56.5753 21.2234C54.6894 19.7502 55.4438 17.8315 54.0037 17.5232C54.0037 17.5232 54.4837 17.8658 54.3123 18.6881C53.3522 18.2427 50.7806 17.2491 50.3005 19.3733C50.3005 19.3733 50.8149 18.4482 52.1521 18.6195C52.3578 19.202 52.735 20.5382 52.3921 21.6003C51.9464 23.005 49.2376 27.1163 51.2263 30.1998C51.2263 30.1998 50.472 28.1784 51.3978 26.5339C51.7406 28.3497 53.0436 33.3519 56.4038 34.8251C56.9867 35.1677 56.6781 36.4354 56.3695 37.2577C53.4208 37.1206 53.0436 33.5574 53.0436 33.5574C52.8036 35.7502 53.3522 36.9836 53.9351 37.6688C53.9351 37.6688 54.0379 37.8058 54.2437 37.9771C53.9008 38.3198 52.6664 39.3133 50.9177 38.354C51.7064 37.5318 52.2207 36.0928 51.432 33.5232C51.432 33.5232 51.4663 37.2919 48.8947 38.0799C48.7919 38.1142 48.6547 38.1142 48.5518 38.1485C43.8544 38.9707 42.2428 32.187 42.2428 32.187C41.9685 30.9536 41.557 28.7609 41.7285 26.6367C42.5514 18.8594 48.5518 16.5296 48.5518 16.5296C43.8886 17.6602 41.8656 20.9493 41.0084 23.9986C40.6656 22.1142 40.0484 16.4611 44.0258 11.0821C44.5401 11.733 44.883 12.6581 44.1972 13.6859C44.1972 13.6859 45.7745 13.2748 45.2945 10.945C44.8144 8.61526 44.7459 7.86151 45.8088 7.79299L46.0488 8.1356C46.0488 8.1356 46.1517 8.30691 47.0089 9.6431C47.0089 9.6431 47.2489 9.50606 47.0089 8.88935C46.8031 8.27265 46.1174 6.62811 46.3231 5.18913C46.3231 5.18913 45.2259 9.43753 41.6599 8.64952C38.0939 7.86151 39.9112 3.81868 39.9112 3.81868C39.9112 3.81868 42.7571 5.36045 45.0544 4.77801C45.0544 4.77801 44.6087 3.16773 46.2888 3.20199C48.0032 3.23625 47.2489 4.88079 47.386 6.01141C47.5232 7.14203 46.8717 9.06065 49.4776 8.78656C49.4776 8.78656 49.1004 8.88935 48.5861 8.1356C49.3405 8.03282 50.9177 7.31334 51.8778 9.09492C51.8778 9.09492 52.1864 8.68378 51.2263 7.9643C51.9464 7.9643 52.7693 7.58742 54.9637 9.47179C54.9637 9.47179 54.998 9.47179 54.7237 9.0264C54.7237 9.0264 59.5583 9.16344 61.2728 12.5553C64.4273 11.3219 66.5874 12.8979 66.9646 13.5146C67.3418 14.1313 66.4503 14.3369 66.4503 14.3369C66.2788 14.0285 66.0045 13.7544 65.5931 13.6174C65.8331 13.5831 66.1074 13.6517 66.4846 13.8915C66.4846 13.8915 64.153 11.4247 63.9815 16.0842M66.2103 16.4268C66.0731 16.3926 64.7359 16.4954 64.4958 16.6324C64.5301 16.2898 64.5301 14.611 65.113 13.8572C65.5931 13.9943 66.6217 14.4739 66.2103 16.4268ZM59.0783 17.3519C59.0783 17.3519 57.7754 17.3176 56.6096 17.9001C55.9238 17.2834 54.8266 15.9472 54.2437 15.6731V15.6046C54.2437 15.6046 54.758 13.9258 56.8153 14.2684C56.781 14.3026 58.324 16.0842 59.0783 17.3519ZM64.0158 37.3604C64.0158 37.3604 64.153 36.2641 63.6044 34.6538C63.6044 34.6538 64.2558 35.2362 65.5588 34.3455C65.5245 34.3797 66.176 36.0928 64.0158 37.3604ZM75.1938 41.6774C75.1252 40.1013 74.8509 38.6281 74.1651 38.1142C72.3821 36.7437 71.2506 37.8058 71.2506 37.8058C71.2506 37.8058 72.5193 37.1891 73.6851 38.6966C75.1595 40.581 74.0965 46.1998 74.0965 46.1998C71.5592 47.1249 70.0163 45.8572 70.0163 45.8572C69.2276 44.9322 69.6048 39.005 69.6048 39.005C68.7819 40.4782 68.8504 44.4525 68.919 46.0971C66.656 46.6452 65.5931 45.823 65.5931 45.823C64.5987 40.3754 67.6161 37.8744 67.6161 37.8744C64.5987 38.8337 64.4958 43.3904 64.6673 45.6517C63.2958 45.5831 62.5071 45.1035 62.5071 45.1035C61.6499 39.793 65.113 38.5596 65.113 38.5596C64.633 38.5939 64.1873 38.6966 63.8101 38.8679C63.8444 38.7309 63.8787 38.5938 63.9129 38.4568C64.5644 38.217 65.0788 37.8744 65.4559 37.5318C66.4503 37.0864 67.7532 36.7437 68.9876 37.1891C68.9876 37.1891 68.5076 36.127 66.0388 36.8123C67.0675 35.1677 66.176 33.2148 66.1074 33.0778C66.5189 31.0906 64.4958 29.3091 64.4958 29.3091C64.4273 29.6174 64.3244 29.8915 64.2558 30.0971C64.2215 30.1313 64.2215 30.1998 64.1873 30.2341C63.4672 29.823 62.85 28.1099 63.3643 26.0885C63.7072 24.7523 64.5644 24.2041 65.2159 24.0328C65.4559 24.5125 65.8331 25.6088 65.2845 26.7737C65.2845 26.7737 67.1018 26.6367 67.9247 24.3754C68.679 24.1356 69.2276 23.656 69.5705 23.1078C70.3248 23.4504 72.8622 24.8208 71.1478 27.8016C71.1478 27.8016 71.5592 27.459 71.9364 26.9108C72.8965 27.9386 78.7254 34.5168 76.051 40.4097C75.811 39.005 75.0909 38.5253 75.0909 38.5253C75.6738 39.8958 75.4681 40.9921 75.1938 41.6774Z" fill="#000104"/>
</g>
<mask id="mask10_990_3968" style="mask-type:luminance" maskUnits="userSpaceOnUse" x="0" y="0" width="158" height="51">
<path d="M158 0.906494H0V50.5853H158V0.906494Z" fill="white"/>
</mask>
<g mask="url(#mask10_990_3968)">
<path d="M56.61 17.9363C57.7758 17.3193 59.0787 17.3878 59.0787 17.3878C58.5987 16.5994 57.8443 15.6052 57.2957 14.9539C56.5414 15.1595 55.9585 15.8795 55.9585 16.7365C55.9585 16.9765 55.9928 17.2164 56.0957 17.4221C56.2671 17.6278 56.4385 17.7992 56.61 17.9363Z" fill="#000104"/>
</g>
<mask id="mask11_990_3968" style="mask-type:luminance" maskUnits="userSpaceOnUse" x="0" y="0" width="158" height="51">
<path d="M158 0.906494H0V50.5853H158V0.906494Z" fill="white"/>
</mask>
<g mask="url(#mask11_990_3968)">
<path d="M66.2106 16.4278C66.3134 15.845 66.3134 15.3993 66.2448 15.0565C66.142 15.0222 66.0391 15.0222 65.9362 15.0222C65.2162 15.0222 64.6333 15.6393 64.6333 16.3935C64.6333 16.462 64.6333 16.5306 64.6676 16.5992C65.079 16.4963 66.1077 16.4278 66.2106 16.4278Z" fill="#000104"/>
</g>
<mask id="mask12_990_3968" style="mask-type:luminance" maskUnits="userSpaceOnUse" x="0" y="0" width="158" height="51">
<path d="M158 0.906494H0V50.5853H158V0.906494Z" fill="white"/>
</mask>
<g mask="url(#mask12_990_3968)">
<path d="M57.9129 22.9019C57.9129 22.9019 57.5357 24.6492 58.7701 26.5335C58.7701 26.5335 58.9415 24.101 60.2445 23.2445C60.2445 23.2445 59.3187 23.313 57.9129 22.9019ZM63.3647 32.2894C62.4046 33.4886 63.9476 34.9961 65.182 33.6599C66.382 32.3922 64.7362 30.1995 64.7362 30.1995C64.6676 31.2959 63.3647 32.2894 63.3647 32.2894ZM65.6963 23.8954C66.3135 25.1288 65.9706 26.0881 65.9706 26.0881C67.2735 25.3001 67.2735 24.101 67.2735 24.101C66.5878 23.2445 65.6963 23.8954 65.6963 23.8954ZM57.6043 32.1867C57.6043 32.1867 56.6099 30.6792 56.8842 29.5143C56.8842 29.5143 54.3812 31.1931 55.1698 32.9404C55.9927 34.7562 58.1872 33.7627 57.6043 32.1867Z" fill="white"/>
</g>
<mask id="mask13_990_3968" style="mask-type:luminance" maskUnits="userSpaceOnUse" x="0" y="0" width="158" height="51">
<path d="M158 0.906494H0V50.5853H158V0.906494Z" fill="white"/>
</mask>
<g mask="url(#mask13_990_3968)">
<path d="M62.9872 34.7224C61.1357 26.4312 59.2498 27.5618 58.3583 27.0136C58.2555 26.9451 58.1183 26.8766 58.0155 26.8423C60.4156 29.1035 60.6556 32.6325 60.6556 32.6325C58.9069 27.4933 56.1639 26.1228 55.4781 25.8487C53.6951 25.232 52.6665 25.883 52.6665 25.883C54.4152 26.534 53.9009 28.1442 53.9009 28.1442C54.4152 27.6988 54.8267 28.1785 54.8267 28.1785C54.0723 28.6581 54.2438 29.2749 54.2438 29.2749C54.7581 28.7267 55.4096 29.035 55.4096 29.035C54.3466 30.1999 54.9638 30.6453 55.0324 30.7823C55.6153 29.8573 56.5411 29.2063 56.6096 29.1721L57.6383 28.4868L57.3297 29.686C57.124 30.474 57.7412 31.6046 57.9812 31.9815L58.0155 32.0843C58.1526 32.3926 58.1526 32.7352 58.1183 33.0436C58.1183 33.1806 58.1526 33.2834 58.1526 33.4205C58.1526 35.0307 57.6383 37.1892 57.6383 37.1892C57.124 39.3477 57.9126 40.6838 59.5927 40.8894C61.65 41.095 64.1873 40.0671 62.9872 34.7224Z" fill="#CE202F"/>
</g>
<mask id="mask14_990_3968" style="mask-type:luminance" maskUnits="userSpaceOnUse" x="0" y="0" width="158" height="51">
<path d="M158 0.906494H0V50.5853H158V0.906494Z" fill="white"/>
</mask>
<g mask="url(#mask14_990_3968)">
<path d="M38.8144 20.812C38.8487 20.812 39.4659 20.4351 39.603 19.7157C39.7059 19.236 39.5687 18.7563 39.1573 18.2767L39.0201 18.1054L34.9741 18.7563L38.6087 20.8805L38.8144 20.812ZM39.4316 26.6707L39.2601 26.6364L36.7571 29.1717L40.4259 28.6578L40.4602 28.418C40.6317 27.2874 39.8773 26.7735 39.4316 26.6707ZM40.7345 13.0347C41.7632 12.8977 42.0375 11.9726 42.0375 11.493V11.2874L38.9516 9.9512L40.4945 13.069L40.7345 13.0347ZM50.6438 4.2981L49.6152 6.66212L49.7523 6.7649C50.0266 6.97047 50.3352 7.039 50.6095 7.039C50.9524 7.039 51.1582 6.90195 51.1582 6.86769L51.261 6.79916L50.6438 4.2981ZM41.6603 34.6878L40.7002 36.7435L42.8261 36.2296C42.8261 36.2296 43.1347 35.8527 42.6204 35.1332C42.0032 34.3109 41.6603 34.6878 41.6603 34.6878Z" fill="#CE202F"/>
</g>
</svg>
